<svg width="428" height="30" viewBox="0 0 428 30" fill="none" xmlns="http://www.w3.org/2000/svg">
<path d="M7.356 23.176C3.688 23.176 0.888 20.908 0.888 16.596C0.888 12.2 3.688 10.744 5.34 10.744C6.04 10.744 6.488 11.024 6.488 11.444C6.488 12.088 5.508 12.144 5.508 13.684C5.508 15.196 6.376 16.148 7.832 16.148C9.176 16.148 10.128 15.196 10.128 13.824C10.128 11.668 7.3 9.59599 7.3 6.20799C7.3 3.63199 8.98 1.16799 12.704 1.16799C15.98 1.16799 17.24 3.12799 17.24 5.14399C17.24 6.82399 16.26 8.39199 14.748 9.17599C14.412 9.65199 13.18 8.72799 13.572 8.22399C14.104 7.55199 14.272 5.56399 12.676 5.56399C11.752 5.56399 10.94 6.12399 10.94 7.52399C10.856 10.016 14.412 12.48 14.412 16.008C14.412 20.18 11.472 23.176 7.356 23.176Z" fill="#062172"/>
<path d="M18.4602 22C16.5562 22 15.5762 20.264 15.5762 17.772C15.5762 13.88 17.9842 7.99999 22.8002 7.99999C25.0402 7.99999 24.9282 9.06399 25.6562 9.06399C26.5802 9.06399 26.7762 7.99999 28.0922 7.99999C28.8202 7.99999 29.0722 8.41999 29.0722 9.03599C29.0722 10.1 28.3442 10.968 27.7282 12.592C26.7762 14.636 27.0842 15.756 28.3162 15.756C29.2682 15.756 29.9682 15.224 30.5282 14.328C30.9482 13.656 32.0682 14.496 31.7882 15.028C30.4162 17.632 28.8762 22 25.7682 22C23.8362 22 23.0242 20.236 23.3602 17.912H23.2482C22.1282 20.18 20.4482 22 18.4602 22ZM21.2602 16.204C22.7162 16.204 23.6962 14.748 23.6962 13.572C23.6962 12.648 23.1362 12.088 22.2402 12.088C20.7842 12.088 19.8602 13.46 19.8602 14.692C19.8602 15.644 20.3922 16.204 21.2602 16.204Z" fill="#062172"/>
<path d="M31.639 22C30.323 22 29.595 21.132 29.595 19.956C29.595 18.64 29.875 16.624 30.519 14.328C31.443 11.052 32.843 7.99999 33.879 7.99999C34.635 7.99999 34.803 8.50399 34.803 9.06399C34.803 10.156 35.363 10.492 36.259 9.59599C37.295 8.58799 38.415 7.99999 39.647 7.99999C41.355 7.99999 42.167 9.17599 42.167 10.576C42.167 12.06 41.271 12.956 41.271 14.356C41.271 15.308 41.691 15.756 42.615 15.756C43.455 15.756 43.987 15.168 44.547 14.328C44.995 13.656 46.115 14.496 45.807 15.028C44.911 16.568 43.007 22 39.227 22C37.463 22 36.847 20.656 36.847 19.088C36.847 16.96 38.023 15.084 38.023 13.936C38.023 13.292 37.603 12.956 36.959 12.956C35.335 12.956 33.935 15.28 33.935 17.772V19.032C33.935 20.46 33.571 22 31.639 22Z" fill="#062172"/>
<path d="M47.1783 22C44.9663 22 43.9863 20.264 43.9863 18.024C43.9863 13.88 46.3943 7.99999 51.2103 7.99999C53.4503 7.99999 53.3383 9.34399 54.0663 9.34399C54.5143 9.34399 54.5143 7.80399 55.7183 4.91999C56.7823 2.34399 57.8183 1.86799 58.6583 1.86799C59.6383 1.86799 60.0303 2.90399 59.3023 4.49999L56.1383 12.592C55.1863 14.636 55.4943 15.756 56.7263 15.756C57.6783 15.756 58.3783 15.224 58.9383 14.328C59.3583 13.656 60.4783 14.496 60.1983 15.028C58.8263 17.632 57.2863 22 54.1783 22C52.3863 22 51.4623 20.236 51.7703 17.912H51.6583C50.5103 20.18 48.8863 22 47.1783 22ZM49.7263 16.204C51.1263 16.204 52.1063 14.748 52.1063 13.572C52.1063 12.76 51.6583 12.088 50.5663 12.088C49.1943 12.088 48.2703 13.46 48.2703 14.692C48.2703 15.504 48.6623 16.204 49.7263 16.204Z" fill="#062172"/>
<path d="M69.9892 14.328C70.4372 13.656 71.5572 14.496 71.2492 15.028C70.3532 16.568 68.4492 22 64.6692 22C62.3732 22 61.5892 20.488 61.5892 19.06C61.5892 16.456 63.5492 13.824 63.5492 12.48C63.5492 12.2 63.1852 11.5 62.0652 11.08C61.5612 12.2 60.6372 14.104 60.1892 15.028C59.8252 15.756 58.5652 14.86 58.9292 14.328C59.4612 13.572 60.1612 11.948 60.6372 10.66C60.0772 10.464 59.7132 10.1 59.7132 9.09199C59.7132 7.94399 60.6932 6.57199 62.2052 6.57199C64.8372 6.57199 67.5252 8.36399 67.5252 9.87599C67.5252 11.472 66.3212 12.648 66.3212 14.384C66.3212 15.168 66.7972 15.756 68.0572 15.756C68.8972 15.756 69.4292 15.168 69.9892 14.328Z" fill="#062172"/>
<path d="M72.3 22C70.396 22 69.416 20.264 69.416 17.772C69.416 13.88 71.824 7.99999 76.64 7.99999C78.88 7.99999 78.768 9.06399 79.496 9.06399C80.42 9.06399 80.616 7.99999 81.932 7.99999C82.66 7.99999 82.912 8.41999 82.912 9.03599C82.912 10.1 82.184 10.968 81.568 12.592C80.616 14.636 80.924 15.756 82.156 15.756C83.108 15.756 83.808 15.224 84.368 14.328C84.788 13.656 85.908 14.496 85.628 15.028C84.256 17.632 82.716 22 79.608 22C77.676 22 76.864 20.236 77.2 17.912H77.088C75.968 20.18 74.288 22 72.3 22ZM75.1 16.204C76.556 16.204 77.536 14.748 77.536 13.572C77.536 12.648 76.976 12.088 76.08 12.088C74.624 12.088 73.7 13.46 73.7 14.692C73.7 15.644 74.232 16.204 75.1 16.204Z" fill="#062172"/>
<path d="M99.6847 22C97.7247 22 95.7927 20.572 95.7927 17.016C95.7927 14.44 96.8007 10.744 99.5727 5.64799C97.0807 4.91999 94.8967 6.17999 94.8967 7.94399C94.8967 8.72799 95.3447 9.34399 95.9607 9.34399C96.4647 10.576 95.0087 12.984 92.2927 12.984C89.9967 12.984 88.7927 11.024 88.7927 8.86799C88.7927 4.69599 92.9927 1.16799 98.8727 1.16799C102.625 1.16799 102.905 2.90399 102.317 5.75999C101.113 11.612 100.329 15.756 101.617 15.756C102.849 15.756 103.745 13.404 104.837 10.604C106.517 6.17999 108.393 0.607986 112.537 0.607986C117.773 0.607986 117.381 6.90799 113.125 6.90799C111.781 6.90799 111.809 6.34799 110.913 6.34799C106.657 6.34799 105.173 22 99.6847 22Z" fill="#062172"/>
<path d="M113.159 6.85199C111.815 6.85199 110.695 6.34799 110.695 4.86399C110.695 2.87599 111.955 2.28799 113.495 2.28799C114.923 2.28799 116.071 2.81999 115.931 4.55599C115.763 6.29199 114.615 6.85199 113.159 6.85199ZM110.051 22C108.175 22 107.475 20.46 107.475 18.5C107.475 17.184 107.755 15.672 108.175 14.328C109.463 10.268 110.611 7.99999 112.207 7.99999C112.795 7.99999 113.159 8.36399 113.159 9.25999C113.159 10.968 111.899 12.816 111.899 14.328C111.899 15.252 112.403 15.728 113.159 15.728C113.999 15.728 114.531 15.168 115.091 14.328C115.539 13.656 116.631 14.496 116.351 15C115.455 16.512 113.663 22 110.051 22Z" fill="#062172"/>
<path d="M116.802 22C114.814 22 114.142 20.768 114.142 19.116C114.142 17.688 114.534 15.924 115.094 14.328C117.922 6.15199 119.21 1.86799 121.478 1.86799C122.626 1.86799 123.018 2.73599 122.15 4.49999C120.61 7.60799 119.518 10.184 118.874 12.536C118.398 14.16 118.174 15.756 119.854 15.756C120.834 15.756 121.534 15.224 122.122 14.328C122.57 13.656 123.69 14.496 123.382 15.028C122.486 16.568 120.582 22 116.802 22Z" fill="#062172"/>
<path d="M124.445 22C122.541 22 121.561 20.264 121.561 17.772C121.561 13.88 123.969 7.99999 128.785 7.99999C131.025 7.99999 130.913 9.06399 131.641 9.06399C132.565 9.06399 132.761 7.99999 134.077 7.99999C134.805 7.99999 135.057 8.41999 135.057 9.03599C135.057 10.1 134.329 10.968 133.713 12.592C132.761 14.636 133.069 15.756 134.301 15.756C135.253 15.756 135.953 15.224 136.513 14.328C136.933 13.656 138.053 14.496 137.773 15.028C136.401 17.632 134.861 22 131.753 22C129.821 22 129.009 20.236 129.345 17.912H129.233C128.113 20.18 126.433 22 124.445 22ZM127.245 16.204C128.701 16.204 129.681 14.748 129.681 13.572C129.681 12.648 129.121 12.088 128.225 12.088C126.769 12.088 125.845 13.46 125.845 14.692C125.845 15.644 126.377 16.204 127.245 16.204Z" fill="#062172"/>
<path d="M147.563 14.328C148.011 13.656 149.131 14.496 148.823 15.028C147.927 16.568 146.023 22 142.243 22C139.947 22 139.163 20.488 139.163 19.06C139.163 16.456 141.123 13.824 141.123 12.48C141.123 12.2 140.759 11.5 139.639 11.08C139.135 12.2 138.211 14.104 137.763 15.028C137.399 15.756 136.139 14.86 136.503 14.328C137.035 13.572 137.735 11.948 138.211 10.66C137.651 10.464 137.287 10.1 137.287 9.09199C137.287 7.94399 138.267 6.57199 139.779 6.57199C142.411 6.57199 145.099 8.36399 145.099 9.87599C145.099 11.472 143.895 12.648 143.895 14.384C143.895 15.168 144.371 15.756 145.631 15.756C146.471 15.756 147.003 15.168 147.563 14.328Z" fill="#062172"/>
<path d="M161.868 13.74C160.58 13.74 159.516 12.676 159.516 11.388C159.516 10.1 160.58 9.03599 161.868 9.03599C163.156 9.03599 164.22 10.1 164.22 11.388C164.22 12.676 163.156 13.74 161.868 13.74Z" fill="#062172"/>
<path d="M178.876 23.176C175.432 23.176 174.032 20.796 174.032 18.472C174.032 16.176 175.516 13.908 177.756 13.908C177.98 13.908 178.176 14.048 178.176 14.244C178.176 15.476 179.38 16.316 180.92 16.316C182.656 16.316 184.868 14.888 186.184 11.528C186.66 10.268 187.192 8.83999 187.668 7.63599C188.032 6.65599 188.648 6.29199 189.488 6.29199C190.664 6.29199 190.916 6.87999 190.72 7.80399C190.328 9.62399 188.256 13.516 188.256 15.196C188.256 15.924 188.648 16.484 189.6 16.484C192.036 16.484 193.8 12.704 193.8 9.39999C193.8 7.01999 192.708 4.91999 188.844 4.91999C186.212 4.91999 183.608 6.15199 183.608 9.03599C183.608 9.84799 184.056 10.464 184.672 10.464C185.456 10.576 183.72 14.104 181.004 14.104C178.708 14.104 177.504 12.144 177.504 10.016C177.504 5.22799 182.012 1.16799 188.424 1.16799C195.564 1.16799 197.972 5.33999 197.972 10.1C197.972 16.064 194.08 22.28 189.6 22.28C187.276 22.28 185.876 20.768 185.736 18.444C184.168 21.356 181.76 23.176 178.876 23.176Z" fill="#062172"/>
<path d="M203.585 6.85199C202.241 6.85199 201.121 6.34799 201.121 4.86399C201.121 2.87599 202.381 2.28799 203.921 2.28799C205.349 2.28799 206.497 2.81999 206.357 4.55599C206.189 6.29199 205.041 6.85199 203.585 6.85199ZM200.477 22C198.601 22 197.901 20.46 197.901 18.5C197.901 17.184 198.181 15.672 198.601 14.328C199.889 10.268 201.037 7.99999 202.633 7.99999C203.221 7.99999 203.585 8.36399 203.585 9.25999C203.585 10.968 202.325 12.816 202.325 14.328C202.325 15.252 202.829 15.728 203.585 15.728C204.425 15.728 204.957 15.168 205.517 14.328C205.965 13.656 207.057 14.496 206.777 15C205.881 16.512 204.089 22 200.477 22Z" fill="#062172"/>
<path d="M216.356 14.328C216.804 13.656 217.868 14.496 217.616 15.028C216.832 16.652 214.536 21.972 209.328 21.972C204.4 21.972 203.812 17.128 205.492 14.328L205.604 14.16C207.592 11.472 209.58 7.29999 211.988 7.29999C213.724 7.29999 214.564 8.30799 214.536 9.20399C214.564 10.1 212.52 10.184 212.52 11.304C212.52 11.836 214.004 14.076 214.368 15.812C215.208 15.784 215.796 15.168 216.356 14.328ZM208.32 16.204C209.552 16.204 210.252 15.308 210.252 14.16C210.252 13.488 210.028 12.788 209.636 12.032C209.44 11.668 209.216 11.668 208.964 12.032C208.264 13.068 207.396 14.216 206.752 15.028C206.752 15.7 207.396 16.204 208.32 16.204Z" fill="#062172"/>
<path d="M220.94 22C213.072 22 215.396 7.99999 223.432 7.99999C226.036 7.99999 227.184 9.67999 227.184 11.528C227.184 13.572 225.42 15.868 222.676 15.868C221.892 15.868 221.136 15.784 220.492 15.42C220.296 15.308 220.016 15.392 220.016 15.756C220.016 16.736 221.332 17.24 222.928 17.24C224.832 17.24 227.1 16.26 228.36 14.328C228.808 13.656 229.928 14.496 229.62 15.028C227.156 19.592 224.188 22 220.94 22ZM221.948 13.768C223.04 13.768 223.684 12.9 223.684 12.2C223.684 11.584 223.264 11.052 222.396 11.052C221.304 11.052 220.632 11.864 220.632 12.62C220.632 13.236 221.052 13.768 221.948 13.768Z" fill="#062172"/>
<path d="M229.471 22C228.155 22 227.427 21.132 227.427 19.956C227.427 18.64 227.707 16.624 228.351 14.328C229.275 11.052 230.675 7.99999 231.711 7.99999C232.467 7.99999 232.635 8.50399 232.635 9.06399C232.635 10.156 233.195 10.492 234.091 9.59599C235.127 8.58799 236.247 7.99999 237.479 7.99999C239.187 7.99999 239.999 9.17599 239.999 10.576C239.999 12.06 239.103 12.956 239.103 14.356C239.103 15.308 239.523 15.756 240.447 15.756C241.287 15.756 241.819 15.168 242.379 14.328C242.827 13.656 243.947 14.496 243.639 15.028C242.743 16.568 240.839 22 237.059 22C235.295 22 234.679 20.656 234.679 19.088C234.679 16.96 235.855 15.084 235.855 13.936C235.855 13.292 235.435 12.956 234.791 12.956C233.167 12.956 231.767 15.28 231.767 17.772V19.032C231.767 20.46 231.403 22 229.471 22Z" fill="#062172"/>
<path d="M255.706 14.328C256.042 13.852 257.274 14.384 256.966 15.028C256.154 16.736 254.782 18.864 252.066 18.864H251.73C250.33 20.768 248.342 22 246.242 22C243.722 22 241.902 20.208 241.902 17.296C241.902 13.096 245.15 7.99999 249.602 7.99999C251.898 7.99999 253.69 9.28799 253.69 12.816C253.69 13.796 253.55 14.776 253.27 15.7H253.466C254.278 15.7 255.034 15.308 255.706 14.328ZM247.838 16.204C249.238 16.204 250.218 14.748 250.218 13.572C250.218 12.76 249.77 12.088 248.678 12.088C247.306 12.088 246.382 13.46 246.382 14.692C246.382 15.504 246.774 16.204 247.838 16.204Z" fill="#062172"/>
<path d="M276.649 9.98799C275.193 9.98799 274.045 9.67999 273.093 9.23199C272.953 9.65199 272.897 10.044 272.897 10.436C272.897 11.92 273.821 12.928 275.529 12.928C276.677 12.928 277.797 12.564 278.665 11.472C279.421 10.828 280.457 11.584 280.317 12.172C279.785 14.496 279.169 16.176 278.441 18.36C277.125 22.28 273.849 24.688 269.565 24.688C265.533 24.688 263.349 22.336 263.349 19.424C263.349 17.24 264.581 15.42 266.457 15.42C266.681 15.42 266.877 15.56 266.877 15.756C266.877 17.912 268.837 19.368 271.133 19.368C272.841 19.368 274.325 18.612 275.445 16.708C275.641 16.372 275.249 15.924 275.053 16.288C274.353 17.604 273.065 17.94 272.113 17.94C269.817 17.94 268.137 15.952 268.137 12.284C268.137 10.464 268.557 8.69999 269.313 7.07599C268.893 6.93599 268.445 6.82399 267.969 6.82399C266.737 6.82399 265.897 7.46799 265.897 8.47599C265.897 9.28799 266.429 9.87599 267.213 9.87599C267.689 10.94 266.317 12.984 263.629 12.984C261.025 12.984 259.681 11.08 259.681 8.64399C259.681 5.31199 262.341 2.84799 266.345 2.84799C268.557 2.84799 269.957 3.57599 270.965 4.16399C272.841 1.78399 275.893 1.16799 277.629 1.16799C280.765 1.16799 282.669 2.81999 282.669 5.42399C282.669 8.27999 280.037 9.98799 276.649 9.98799ZM277.041 5.36799C275.641 5.36799 274.241 5.98399 274.241 6.99199C274.241 7.88799 275.389 7.97199 276.033 7.97199C277.853 7.97199 278.693 7.15999 278.693 6.37599C278.693 5.84399 278.301 5.36799 277.041 5.36799Z" fill="#062172"/>
<path d="M292.048 14.328C292.496 13.656 293.616 14.496 293.308 15.028C292.412 16.568 290.508 22 286.728 22C284.432 22 283.648 20.488 283.648 19.06C283.648 16.456 285.608 13.824 285.608 12.48C285.608 12.2 285.244 11.5 284.124 11.08C283.62 12.2 282.696 14.104 282.248 15.028C281.884 15.756 280.624 14.86 280.988 14.328C281.52 13.572 282.22 11.948 282.696 10.66C282.136 10.464 281.772 10.1 281.772 9.09199C281.772 7.94399 282.752 6.57199 284.264 6.57199C286.896 6.57199 289.584 8.36399 289.584 9.87599C289.584 11.472 288.38 12.648 288.38 14.384C288.38 15.168 288.856 15.756 290.116 15.756C290.956 15.756 291.488 15.168 292.048 14.328Z" fill="#062172"/>
<path d="M294.359 22C292.455 22 291.475 20.264 291.475 17.772C291.475 13.88 293.883 7.99999 298.699 7.99999C300.939 7.99999 300.827 9.06399 301.555 9.06399C302.479 9.06399 302.675 7.99999 303.991 7.99999C304.719 7.99999 304.971 8.41999 304.971 9.03599C304.971 10.1 304.243 10.968 303.627 12.592C302.675 14.636 302.983 15.756 304.215 15.756C305.167 15.756 305.867 15.224 306.427 14.328C306.847 13.656 307.967 14.496 307.687 15.028C306.315 17.632 304.775 22 301.667 22C299.735 22 298.923 20.236 299.259 17.912H299.147C298.027 20.18 296.347 22 294.359 22ZM297.159 16.204C298.615 16.204 299.595 14.748 299.595 13.572C299.595 12.648 299.035 12.088 298.139 12.088C296.683 12.088 295.759 13.46 295.759 14.692C295.759 15.644 296.291 16.204 297.159 16.204Z" fill="#062172"/>
<path d="M320.585 14.328C321.005 13.684 322.125 14.496 321.845 15C320.949 16.512 319.157 22 315.545 22C313.669 22 312.969 20.46 312.969 18.5C312.969 17.184 313.249 15.672 313.669 14.328C314.173 12.76 314.649 11.472 315.125 10.464C313.949 10.408 312.437 10.352 311.009 10.268C310.533 12.396 310.253 14.58 310.085 16.092C309.777 18.836 309.973 22 307.229 22C304.625 22 305.073 19.508 306.417 14.328C306.809 12.872 307.229 11.472 307.649 10.156H307.285C304.681 10.156 305.913 8.02799 306.585 8.02799H308.461C308.993 6.68399 309.581 5.50799 310.197 4.47199C311.681 2.03599 313.445 0.579987 316.749 0.579987C318.233 0.579987 321.537 1.05599 321.425 4.35999V4.55599C321.425 4.58399 321.425 4.58399 321.425 4.61199C321.229 6.29199 320.081 6.85199 318.653 6.85199C317.589 6.85199 316.665 6.54399 316.329 5.64799C315.937 4.61199 315.657 4.16399 314.565 4.16399C313.221 4.16399 312.269 5.84399 311.597 8.02799L317.673 7.99999H317.701C318.289 7.99999 318.653 8.36399 318.653 9.25999C318.653 10.968 317.393 12.816 317.393 14.328C317.393 15.252 317.897 15.728 318.653 15.728C319.493 15.728 320.025 15.168 320.585 14.328Z" fill="#062172"/>
<path d="M324.838 22C321.478 22 319.994 19.452 319.994 16.54C319.994 12.62 322.682 7.99999 327.106 7.99999C329.794 7.99999 330.97 9.62399 330.97 11.444C330.97 13.852 329.318 14.804 328.114 14.804C327.134 14.804 326.658 14.384 326.658 14.02C326.658 13.544 327.302 13.432 327.302 12.424C327.302 11.92 326.994 11.444 326.154 11.444C324.894 11.444 324.166 12.76 324.166 14.16C324.166 17.912 329.682 18.136 332.314 14.328C332.762 13.656 333.882 14.496 333.574 15.028C331.11 19.592 328.114 22 324.838 22Z" fill="#062172"/>
<path d="M345.64 14.328C345.976 13.852 347.208 14.384 346.9 15.028C346.088 16.736 344.716 18.864 342 18.864H341.664C340.264 20.768 338.276 22 336.176 22C333.656 22 331.836 20.208 331.836 17.296C331.836 13.096 335.084 7.99999 339.536 7.99999C341.832 7.99999 343.624 9.28799 343.624 12.816C343.624 13.796 343.484 14.776 343.204 15.7H343.4C344.212 15.7 344.968 15.308 345.64 14.328ZM337.772 16.204C339.172 16.204 340.152 14.748 340.152 13.572C340.152 12.76 339.704 12.088 338.612 12.088C337.24 12.088 336.316 13.46 336.316 14.692C336.316 15.504 336.708 16.204 337.772 16.204Z" fill="#062172"/>
<path d="M369.634 14.328C369.97 13.852 371.202 14.384 370.894 15.028C369.27 18.444 367.982 22 365.266 22C364.846 22 364.51 21.776 364.286 21.384C362.494 27.152 360.562 29.308 357.454 29.308C354.486 29.308 352.806 27.656 352.806 24.968C352.806 22.112 354.794 20.88 354.85 21.44C354.99 22.84 356.026 23.82 357.762 23.792C360.226 23.764 362.298 21.468 362.606 18.752C362.662 18.136 362.102 17.996 361.822 18.696C361.066 20.572 359.694 21.72 357.874 21.72C356.362 21.72 355.102 20.768 355.102 18.64C355.102 17.8 355.158 16.148 355.718 14.328C357.006 10.24 358.294 7.99999 359.862 7.99999C360.478 7.99999 360.73 8.39199 360.73 9.11999C360.73 10.94 359.47 12.816 359.47 14.468C359.47 15.252 359.722 15.728 360.646 15.728C361.878 15.728 362.578 14.972 363.026 13.656C364.174 9.98799 365.322 7.99999 366.75 7.99999C367.562 7.99999 368.01 8.33599 368.01 9.23199C368.01 10.408 367.142 11.836 366.19 14.664C365.742 16.232 366.274 16.764 366.918 16.764C367.758 16.764 368.822 15.504 369.634 14.328Z" fill="#062172"/>
<path d="M384.318 22C382.694 22 381.07 20.572 381.07 17.016C381.07 14.44 382.078 10.744 384.85 5.64799C382.358 4.91999 380.174 6.17999 380.174 7.94399C380.174 8.72799 380.622 9.34399 381.238 9.34399C381.742 10.576 380.286 12.984 377.57 12.984C375.274 12.984 374.07 11.024 374.07 8.86799C374.07 4.69599 378.27 1.16799 384.15 1.16799C388.21 1.16799 388.546 2.90399 387.874 5.75999C386.138 13.236 385.606 15.476 387.062 15.476C388.098 15.476 388.91 13.684 390.114 9.34399C391.458 4.58399 391.43 1.72799 393.922 1.72799C395.154 1.72799 396.33 2.45599 396.33 3.82799C396.33 5.81599 394.51 7.57999 393.978 10.128C393.222 13.88 393.754 15.476 394.398 15.476C395.49 15.476 396.05 13.264 396.89 10.604C399.074 3.51999 401.93 0.607986 405.57 0.607986C410.806 0.607986 410.414 6.90799 406.158 6.90799C404.73 6.90799 404.758 6.34799 403.806 6.34799C398.318 6.34799 401.286 22 393.978 22C392.074 22 390.282 20.628 390.954 16.344C391.122 15.308 390.17 15.252 389.834 16.344C388.518 20.712 386.138 22 384.318 22Z" fill="#062172"/>
<path d="M405.893 22C398.025 22 400.349 7.99999 408.385 7.99999C410.989 7.99999 412.137 9.67999 412.137 11.528C412.137 13.572 410.373 15.868 407.629 15.868C406.845 15.868 406.089 15.784 405.445 15.42C405.249 15.308 404.969 15.392 404.969 15.756C404.969 16.736 406.285 17.24 407.881 17.24C409.785 17.24 412.053 16.26 413.313 14.328C413.761 13.656 414.881 14.496 414.573 15.028C412.109 19.592 409.141 22 405.893 22ZM406.901 13.768C407.993 13.768 408.637 12.9 408.637 12.2C408.637 11.584 408.217 11.052 407.349 11.052C406.257 11.052 405.585 11.864 405.585 12.62C405.585 13.236 406.005 13.768 406.901 13.768Z" fill="#062172"/>
<path d="M426.072 14.328C426.408 13.852 427.64 14.384 427.332 15.028C426.52 16.708 425.148 18.696 422.488 18.864C421.088 20.768 419.212 22 417.392 22C413.92 22 411.792 18.724 413.304 14.328C414.116 11.976 414.816 9.93199 415.432 8.25199C416.972 4.05199 418.064 1.86799 419.688 1.86799C420.836 1.86799 421.2 2.67999 420.36 4.49999C419.66 6.09599 418.932 7.63599 418.596 8.95199C418.484 9.34399 418.988 9.48399 419.352 9.11999C420.136 8.30799 421.004 7.99999 421.648 7.99999C423.552 7.99999 424.7 9.11999 424.7 11.976C424.7 13.264 424.476 14.496 424.112 15.644C424.84 15.532 425.512 15.14 426.072 14.328ZM417.028 14.692C417.028 15.504 417.42 16.204 418.484 16.204C419.884 16.204 420.864 14.748 420.864 13.572C420.864 12.76 420.416 12.088 419.324 12.088C417.952 12.088 417.028 13.46 417.028 14.692Z" fill="#062172"/>
<path d="M234.157 5.22526C234.058 5.22526 233.975 5.25256 233.909 5.30717C233.843 5.36178 233.788 5.43003 233.744 5.51195C233.7 5.58476 233.667 5.66212 233.645 5.74403C233.634 5.81684 233.628 5.88055 233.628 5.93515C233.628 6.64505 233.281 7 232.587 7C232.124 7 231.744 6.86348 231.446 6.59044C231.149 6.31741 231 5.96701 231 5.53925C231 5.22981 231.055 4.92947 231.165 4.63823C231.287 4.34699 231.468 4.09215 231.711 3.87372C231.953 3.64619 232.251 3.46416 232.603 3.32765C232.967 3.19113 233.386 3.12287 233.86 3.12287C234.267 3.12287 234.587 3.17292 234.818 3.27304C235.061 3.37315 235.253 3.48692 235.397 3.61434C235.551 3.73265 235.678 3.84187 235.777 3.94198C235.887 4.04209 236.014 4.09215 236.157 4.09215C236.653 4.09215 236.901 3.91923 236.901 3.57338C236.901 3.41866 236.967 3.28669 237.099 3.17747C237.242 3.05916 237.43 3 237.661 3C237.826 3 237.986 3.03185 238.14 3.09556C238.306 3.15927 238.449 3.25029 238.57 3.3686C238.702 3.48692 238.807 3.62799 238.884 3.79181C238.961 3.94653 239 4.1149 239 4.29693C239 4.58817 238.95 4.88396 238.851 5.1843C238.752 5.48464 238.609 5.75768 238.421 6.00341C238.245 6.24915 238.025 6.44937 237.76 6.6041C237.507 6.75882 237.22 6.83618 236.901 6.83618C236.361 6.83618 235.942 6.75427 235.645 6.59044C235.358 6.41752 235.127 6.23094 234.95 6.03072C234.785 5.83049 234.647 5.64846 234.537 5.48464C234.438 5.31172 234.311 5.22526 234.157 5.22526Z" fill="#062172"/>
<path d="M301.449 1.25744C301.607 1.23938 301.819 1.23158 302.083 1.23404C302.336 1.23779 302.591 1.26298 302.849 1.30959C303.095 1.35749 303.316 1.43004 303.51 1.52725C303.694 1.62575 303.795 1.75536 303.813 1.91607C303.838 2.14106 303.782 2.40252 303.644 2.70045C303.506 2.99837 303.322 3.30145 303.094 3.6097C302.855 3.92995 302.586 4.24271 302.288 4.54799C301.979 4.85455 301.672 5.12833 301.367 5.36932C301.051 5.62231 300.754 5.82987 300.474 5.99199C300.194 6.1541 299.958 6.24613 299.765 6.26807C299.652 6.28097 299.524 6.26838 299.382 6.23029C299.229 6.1935 299.085 6.13934 298.951 6.06782C298.816 5.9963 298.703 5.90613 298.61 5.79731C298.507 5.70049 298.449 5.59316 298.436 5.4753C298.414 5.28245 298.439 5.04629 298.51 4.76682C298.581 4.48735 298.691 4.19266 298.839 3.88273C298.989 3.58352 299.161 3.28172 299.356 2.97735C299.552 2.68369 299.767 2.40952 300.002 2.15484C300.238 1.91088 300.479 1.70442 300.723 1.53546C300.969 1.37721 301.211 1.28454 301.449 1.25744Z" fill="#062172"/>
</svg>
