<svg width="57" height="57" viewBox="0 0 57 57" fill="none" xmlns="http://www.w3.org/2000/svg">
<rect x="0.400024" y="0.55777" width="55.6586" height="55.6586" rx="15" fill="#1E1E1E"/>
<g clip-path="url(#clip0_15_37)">
<path d="M28.2293 28.7349C28.2293 26.982 28.9257 25.3009 30.1652 24.0614C31.4047 22.8218 33.0859 22.1255 34.8388 22.1255C36.5917 22.1255 38.2729 22.8218 39.5124 24.0614C40.7519 25.3009 41.4483 26.982 41.4483 28.7349C41.4483 30.4879 40.7519 32.169 39.5124 33.4085C38.2729 34.6481 36.5917 35.3444 34.8388 35.3444C33.0859 35.3444 31.4047 34.6481 30.1652 33.4085C28.9257 32.169 28.2293 30.4879 28.2293 28.7349Z" fill="#1ABCFE"/>
<path d="M15.0104 41.9539C15.0104 40.2009 15.7068 38.5198 16.9463 37.2803C18.1858 36.0408 19.8669 35.3444 21.6199 35.3444H28.2293V41.9539C28.2293 43.7068 27.533 45.3879 26.2935 46.6275C25.0539 47.867 23.3728 48.5633 21.6199 48.5633C19.8669 48.5633 18.1858 47.867 16.9463 46.6275C15.7068 45.3879 15.0104 43.7068 15.0104 41.9539V41.9539Z" fill="#0ACF83"/>
<path d="M28.2293 8.90656V22.1255H34.8388C36.5917 22.1255 38.2729 21.4291 39.5124 20.1896C40.7519 18.9501 41.4483 17.269 41.4483 15.516C41.4483 13.7631 40.7519 12.0819 39.5124 10.8424C38.2729 9.60291 36.5917 8.90656 34.8388 8.90656H28.2293Z" fill="#FF7262"/>
<path d="M15.0104 15.516C15.0104 17.269 15.7068 18.9501 16.9463 20.1896C18.1858 21.4291 19.8669 22.1255 21.6199 22.1255H28.2293V8.90656H21.6199C19.8669 8.90656 18.1858 9.60291 16.9463 10.8424C15.7068 12.0819 15.0104 13.7631 15.0104 15.516V15.516Z" fill="#F24E1E"/>
<path d="M15.0104 28.7349C15.0104 30.4879 15.7068 32.169 16.9463 33.4085C18.1858 34.6481 19.8669 35.3444 21.6199 35.3444H28.2293V22.1255H21.6199C19.8669 22.1255 18.1858 22.8218 16.9463 24.0614C15.7068 25.3009 15.0104 26.982 15.0104 28.7349V28.7349Z" fill="#A259FF"/>
</g>
<defs>
<clipPath id="clip0_15_37">
<rect width="26.4378" height="39.6568" fill="white" transform="translate(15.0104 8.90656)"/>
</clipPath>
</defs>
</svg>
